# xmcd
#
# Track frame offsets:
#	225
#	13240
#	25783
#	37622
#	47004
#	58123
#	70914
#	82723
#	98529
#	108534
#	120371
#	132040
#	144208
#	156693
#
# Disc length: 2284 seconds
#
# Revision: 0
# Processed by: cddbd v1.5.2PL0 Copyright (c) Steve Scherf et al.
# Submitted via: audiograbber 1.83.01
#
DISCID=a908e90e
DTITLE=Various Artist - Bullige Volksmusik CD3
DYEAR=1900
DGENRE=
TTITLE0=Marc Pircher - Musik, du bist mei Leben 
TTITLE1=Die Rassberger - Rassberg-Boarischer
TTITLE2=4 Holterbuam - Auf des bin i stolz
TTITLE3=Zillertal Buam - Jo im Zillertal
TTITLE4=4 Frödischtaler - Vergiss doch Deine Sorgen
TTITLE5=Servus aus Tirol - Reif für die EU
TTITLE6=Die Salzachtaler - Oans aufs Wangerl, oans aufs Naserl
TTITLE7=Die Stürzlhammer - Urlaubsgrüße
TTITLE8=Dorfler Buam - Resi sei net grantig
TTITLE9=Trio Zillertal - Mei Hoamat
TTITLE10=Freytaler Musikanten - Lederhos`ng `schicht
TTITLE11=`Peter Kaufmann Quintett - Ja die Musi spielt heut`auf
TTITLE12=Die 5 Weststeirer - Jo´die Erika
TTITLE13=Die Kasermandln - Karwendellied
EXTD=
EXTT0=
EXTT1=
EXTT2=
EXTT3=
EXTT4=
EXTT5=
EXTT6=
EXTT7=
EXTT8=
EXTT9=
EXTT10=
EXTT11=
EXTT12=
EXTT13=
PLAYORDER=
